<?xml version="1.0" encoding="UTF-8"?>
<svg id="Layer_2" data-name="Layer 2" xmlns="http://www.w3.org/2000/svg" viewBox="0 0 2534 596.05">
  <defs>
    <style>
      .cls-1 {
        fill: #fff;
      }
    </style>
  </defs>
  <g id="Layer_1-2" data-name="Layer 1">
    <g>
      <path class="cls-1" d="M2401,25c59.65,0,108,48.35,108,108v330.05c0,59.65-48.35,108-108,108H133c-59.65,0-108-48.35-108-108V133c0-59.65,48.35-108,108-108h2268M2401,0H133c-35.53,0-68.93,13.83-94.05,38.95C13.83,64.07,0,97.47,0,133v330.05c0,35.53,13.83,68.93,38.95,94.05s58.52,38.95,94.05,38.95h2268c35.53,0,68.93-13.83,94.05-38.95s38.95-58.52,38.95-94.05V133c0-35.53-13.83-68.93-38.95-94.05-25.12-25.12-58.52-38.95-94.05-38.95h0Z"/>
      <g>
        <g>
          <polygon class="cls-1" points="187 235.26 304.46 235.26 304.46 416.5 376.76 416.5 376.76 235.26 494.22 235.26 494.22 174.66 187 174.66 187 235.26"/>
          <path class="cls-1" d="M779.04,201.95c-27.33-19.6-65.82-30.39-108.39-30.39h-16.51c-43.41,0-82.67,10.78-110.54,30.36-30.42,21.36-46.49,51.85-46.49,88.16v11c0,36.58,16.08,67.15,46.5,88.42,27.75,19.4,67.01,30.09,110.53,30.09h16.51c42.68,0,81.17-10.7,108.38-30.12,29.8-21.27,45.55-51.84,45.55-88.39v-11c0-36.29-15.75-66.76-45.54-88.13ZM751.26,290.08v11c0,35.05-30.38,55.16-83.36,55.16h-13.76c-52.98,0-83.36-20.1-83.36-55.16v-11c0-17.23,7.27-30.82,21.61-40.38,14.5-9.67,35.85-14.77,61.74-14.77h13.76c25.89,0,47.24,5.11,61.74,14.77,14.34,9.56,21.61,23.15,21.61,40.38Z"/>
          <path class="cls-1" d="M1157.96,286.64c0-38.06-12.75-66.89-37.89-85.69-23.31-17.44-57.62-26.29-101.95-26.29h-171.13v241.84h171.13c45.65,0,79.2-8.45,102.58-25.85,24.72-18.39,37.25-46.9,37.25-84.76v-19.26ZM1084.63,286.64v19.26c0,17.65-4.49,29.52-14.14,37.35-10.48,8.51-27.61,12.65-52.37,12.65h-98.83v-120.63h98.83c24.89,0,42.07,4.3,52.54,13.14,9.53,8.05,13.96,20.2,13.96,38.24Z"/>
          <path class="cls-1" d="M1372.36,174.66h-103.38l-125.61,241.84h71.68l26.82-51.59h155.88l26.82,51.59h73.76l-125.98-241.84ZM1326.57,228.39l41.14,78.67h-95.87l40.54-78.67h14.19Z"/>
        </g>
        <g>
          <path class="cls-1" d="M1750.89,174.58c63.55,0,92.43,24.55,92.43,70.05v10.47c0,47.3-28.89,71.13-92.43,71.13h-134.68v90.27h-39.72v-241.92h174.4ZM1616.21,293.74h129.63c36.83,0,57.05-9.75,57.05-39.72v-8.3c0-28.52-20.22-38.63-57.05-38.63h-129.63v86.66Z"/>
          <path class="cls-1" d="M1981.81,233.08c69.33,0,107.24,22.75,107.24,65.72v117.71h-39v-28.16h-10.83c-23.83,23.11-57.77,31.05-98.93,31.05-51.27,0-82.69-17.69-82.69-53.44,0-37.55,28.52-54.88,86.3-54.88h106.16v-12.28c0-28.89-27.08-40.44-68.6-40.44h-10.83c-41.16,0-68.6,11.55-68.6,39.72h-39c0-42.61,38.63-64.99,107.96-64.99h10.83ZM1897.32,362.34c0,20.58,19.86,30.33,60.3,30.33,33.22,0,92.43-7.94,92.43-45.5v-14.44h-98.93c-36.83,0-53.8,8.3-53.8,29.61Z"/>
          <path class="cls-1" d="M2157.68,235.96v52.39c0,37.21,27.1,52.39,69.37,52.39h10.84c41.19,0,70.45-16.62,70.45-62.86v-41.91h38.66v171.25c0,66.48-54.92,83.82-114.17,83.82s-115.98-17.34-115.98-83.82v-18.43h38.66v18.43c0,42.27,33.24,53.47,76.23,53.47s76.6-11.2,76.6-53.47v-68.65h-10.12c-14.81,19.51-38.66,32.16-78.76,32.16h-10.84c-46.61,0-89.96-17.7-89.96-72.62v-62.14h39.02Z"/>
        </g>
      </g>
    </g>
  </g>
</svg>